<mxfile host="Electron" modified="2023-12-30T22:14:17.768Z" agent="Mozilla/5.0 (Windows NT 10.0; Win64; x64) AppleWebKit/537.36 (KHTML, like Gecko) draw.io/22.1.16 Chrome/120.0.6099.109 Electron/28.1.0 Safari/537.36" etag="R0Gx89TLnb3sJVMulLSP" version="22.1.16" type="device">
  <diagram id="R2lEEEUBdFMjLlhIrx00" name="Page-1">
    <mxGraphModel dx="3810" dy="2969" grid="1" gridSize="10" guides="0" tooltips="1" connect="1" arrows="1" fold="1" page="1" pageScale="1" pageWidth="850" pageHeight="1100" background="none" math="0" shadow="0" extFonts="Permanent Marker^https://fonts.googleapis.com/css?family=Permanent+Marker">
      <root>
        <mxCell id="0" />
        <mxCell id="1" parent="0" />
        <mxCell id="3vPyPZb5oFQ2m6JWZ5wa-11" value="" style="edgeStyle=orthogonalEdgeStyle;rounded=0;orthogonalLoop=1;jettySize=auto;html=1;shadow=1;fontStyle=1;fontSize=25;endArrow=baseDash;endFill=0;strokeWidth=3;" parent="1" source="3vPyPZb5oFQ2m6JWZ5wa-1" target="3vPyPZb5oFQ2m6JWZ5wa-10" edge="1">
          <mxGeometry relative="1" as="geometry" />
        </mxCell>
        <mxCell id="3vPyPZb5oFQ2m6JWZ5wa-19" value="" style="edgeStyle=orthogonalEdgeStyle;rounded=0;orthogonalLoop=1;jettySize=auto;html=1;shadow=1;fontStyle=1;fontSize=25;endArrow=baseDash;endFill=0;strokeWidth=3;" parent="1" source="3vPyPZb5oFQ2m6JWZ5wa-1" target="3vPyPZb5oFQ2m6JWZ5wa-18" edge="1">
          <mxGeometry relative="1" as="geometry" />
        </mxCell>
        <mxCell id="1EAo7p61quaP7OBLnCX9-48" style="edgeStyle=orthogonalEdgeStyle;rounded=0;orthogonalLoop=1;jettySize=auto;html=1;exitX=1;exitY=1;exitDx=0;exitDy=0;entryX=0;entryY=0;entryDx=0;entryDy=0;endArrow=baseDash;endFill=0;fontStyle=1;fontSize=25;strokeWidth=3;shadow=1;" parent="1" source="3vPyPZb5oFQ2m6JWZ5wa-1" target="1EAo7p61quaP7OBLnCX9-45" edge="1">
          <mxGeometry relative="1" as="geometry" />
        </mxCell>
        <mxCell id="XgsJs7H9sYoSa-Ch-RPL-47" style="edgeStyle=orthogonalEdgeStyle;rounded=0;orthogonalLoop=1;jettySize=auto;html=1;exitX=1;exitY=0.5;exitDx=0;exitDy=0;entryX=0.5;entryY=1;entryDx=0;entryDy=0;elbow=vertical;shape=link;strokeWidth=3;shadow=1;fontSize=25;fontStyle=1" parent="1" source="3vPyPZb5oFQ2m6JWZ5wa-1" target="1EAo7p61quaP7OBLnCX9-1" edge="1">
          <mxGeometry relative="1" as="geometry" />
        </mxCell>
        <mxCell id="3vPyPZb5oFQ2m6JWZ5wa-1" value="Station" style="rounded=0;whiteSpace=wrap;html=1;shadow=1;fontStyle=1;fontSize=25;fillColor=#647687;fontColor=#ffffff;strokeColor=#314354;strokeWidth=3;" parent="1" vertex="1">
          <mxGeometry x="110" y="291.5" width="120" height="60" as="geometry" />
        </mxCell>
        <mxCell id="3vPyPZb5oFQ2m6JWZ5wa-10" value="&lt;p style=&quot;line-height: 110%; font-size: 25px;&quot;&gt;&lt;span style=&quot;font-size: 25px;&quot;&gt;&lt;u style=&quot;font-size: 25px;&quot;&gt;ID&lt;/u&gt;&lt;/span&gt;&lt;/p&gt;" style="ellipse;whiteSpace=wrap;html=1;rounded=0;shadow=1;fontStyle=1;fontSize=25;fillColor=#f8cecc;strokeColor=#b85450;strokeWidth=3;" parent="1" vertex="1">
          <mxGeometry x="150" y="161.5" width="100" height="50" as="geometry" />
        </mxCell>
        <mxCell id="3vPyPZb5oFQ2m6JWZ5wa-15" value="Name" style="ellipse;whiteSpace=wrap;html=1;shadow=1;fontStyle=1;fontSize=25;fillColor=#f8cecc;strokeColor=#b85450;strokeWidth=3;" parent="1" vertex="1">
          <mxGeometry x="260" y="211.5" width="100" height="50" as="geometry" />
        </mxCell>
        <mxCell id="3vPyPZb5oFQ2m6JWZ5wa-17" value="Capacity" style="ellipse;whiteSpace=wrap;html=1;fillColor=#f8cecc;strokeColor=#b85450;fontStyle=1;fontSize=25;strokeWidth=3;shadow=1;" parent="1" vertex="1">
          <mxGeometry x="-20" y="201.5" width="120" height="60" as="geometry" />
        </mxCell>
        <mxCell id="3vPyPZb5oFQ2m6JWZ5wa-22" style="edgeStyle=orthogonalEdgeStyle;rounded=0;orthogonalLoop=1;jettySize=auto;html=1;exitX=0.5;exitY=1;exitDx=0;exitDy=0;shadow=1;fontStyle=1;fontSize=25;endArrow=baseDash;endFill=0;strokeWidth=3;" parent="1" source="3vPyPZb5oFQ2m6JWZ5wa-18" target="3vPyPZb5oFQ2m6JWZ5wa-23" edge="1">
          <mxGeometry relative="1" as="geometry">
            <mxPoint x="180.0000000000001" y="540" as="targetPoint" />
          </mxGeometry>
        </mxCell>
        <mxCell id="3vPyPZb5oFQ2m6JWZ5wa-24" style="edgeStyle=orthogonalEdgeStyle;rounded=0;orthogonalLoop=1;jettySize=auto;html=1;exitX=0;exitY=1;exitDx=0;exitDy=0;shadow=1;fontStyle=1;fontSize=25;endArrow=baseDash;endFill=0;strokeWidth=3;" parent="1" source="3vPyPZb5oFQ2m6JWZ5wa-18" target="3vPyPZb5oFQ2m6JWZ5wa-28" edge="1">
          <mxGeometry relative="1" as="geometry">
            <mxPoint x="70" y="542.5" as="targetPoint" />
          </mxGeometry>
        </mxCell>
        <mxCell id="DPTpgvz85yJJXa_czrge-13" style="edgeStyle=orthogonalEdgeStyle;rounded=0;orthogonalLoop=1;jettySize=auto;html=1;exitX=1;exitY=0.5;exitDx=0;exitDy=0;endArrow=baseDash;endFill=0;fontStyle=1;fontSize=25;strokeWidth=3;shadow=1;" parent="1" source="3vPyPZb5oFQ2m6JWZ5wa-18" target="3vPyPZb5oFQ2m6JWZ5wa-21" edge="1">
          <mxGeometry relative="1" as="geometry" />
        </mxCell>
        <mxCell id="3vPyPZb5oFQ2m6JWZ5wa-18" value="Location" style="ellipse;whiteSpace=wrap;html=1;rounded=0;shadow=1;fontStyle=1;fontSize=25;fillColor=#f8cecc;strokeColor=#b85450;strokeWidth=3;" parent="1" vertex="1">
          <mxGeometry x="130" y="450" width="120" height="60" as="geometry" />
        </mxCell>
        <mxCell id="3vPyPZb5oFQ2m6JWZ5wa-21" value="Street" style="ellipse;whiteSpace=wrap;html=1;shadow=1;fontStyle=1;fontSize=25;fillColor=#dae8fc;strokeColor=#6c8ebf;strokeWidth=3;" parent="1" vertex="1">
          <mxGeometry x="280" y="570" width="120" height="70" as="geometry" />
        </mxCell>
        <mxCell id="3vPyPZb5oFQ2m6JWZ5wa-23" value="Regions" style="ellipse;whiteSpace=wrap;html=1;shadow=1;fontStyle=1;fontSize=25;fillColor=#dae8fc;strokeColor=#6c8ebf;strokeWidth=3;" parent="1" vertex="1">
          <mxGeometry x="140" y="640" width="120" height="70" as="geometry" />
        </mxCell>
        <mxCell id="3vPyPZb5oFQ2m6JWZ5wa-28" value="Goverment" style="ellipse;whiteSpace=wrap;html=1;fontStyle=1;fillColor=#dae8fc;strokeColor=#6c8ebf;fontSize=25;strokeWidth=3;shadow=1;" parent="1" vertex="1">
          <mxGeometry y="570" width="130" height="80" as="geometry" />
        </mxCell>
        <mxCell id="3vPyPZb5oFQ2m6JWZ5wa-30" style="edgeStyle=orthogonalEdgeStyle;rounded=0;orthogonalLoop=1;jettySize=auto;html=1;exitX=0;exitY=0;exitDx=0;exitDy=0;shadow=1;fontStyle=1;fontSize=25;endArrow=baseDash;endFill=0;strokeWidth=3;" parent="1" source="3vPyPZb5oFQ2m6JWZ5wa-29" target="3vPyPZb5oFQ2m6JWZ5wa-31" edge="1">
          <mxGeometry relative="1" as="geometry">
            <mxPoint x="400" y="-240" as="targetPoint" />
          </mxGeometry>
        </mxCell>
        <mxCell id="3vPyPZb5oFQ2m6JWZ5wa-34" style="edgeStyle=orthogonalEdgeStyle;rounded=0;orthogonalLoop=1;jettySize=auto;html=1;exitX=0.75;exitY=0;exitDx=0;exitDy=0;shadow=1;fontStyle=1;fontSize=25;endArrow=baseDash;endFill=0;strokeWidth=3;" parent="1" source="3vPyPZb5oFQ2m6JWZ5wa-29" target="3vPyPZb5oFQ2m6JWZ5wa-35" edge="1">
          <mxGeometry relative="1" as="geometry">
            <mxPoint x="490" y="-240" as="targetPoint" />
          </mxGeometry>
        </mxCell>
        <mxCell id="3vPyPZb5oFQ2m6JWZ5wa-29" value="Platform" style="rounded=0;whiteSpace=wrap;html=1;shadow=1;fontStyle=1;fontSize=25;fillColor=#647687;fontColor=#ffffff;strokeColor=#314354;strokeWidth=3;" parent="1" vertex="1">
          <mxGeometry x="460" y="-110" width="120" height="60" as="geometry" />
        </mxCell>
        <mxCell id="3vPyPZb5oFQ2m6JWZ5wa-31" value="&lt;u style=&quot;font-size: 25px;&quot;&gt;ID&lt;/u&gt;" style="ellipse;whiteSpace=wrap;html=1;shadow=1;fontStyle=1;fontSize=25;fillColor=#f8cecc;strokeColor=#b85450;strokeWidth=3;" parent="1" vertex="1">
          <mxGeometry x="370" y="-260" width="110" height="50" as="geometry" />
        </mxCell>
        <mxCell id="3vPyPZb5oFQ2m6JWZ5wa-35" value="Number" style="ellipse;whiteSpace=wrap;html=1;shadow=1;fontStyle=1;fontSize=25;fillColor=#f8cecc;strokeColor=#b85450;strokeWidth=3;" parent="1" vertex="1">
          <mxGeometry x="520" y="-260" width="120" height="60" as="geometry" />
        </mxCell>
        <mxCell id="XgsJs7H9sYoSa-Ch-RPL-20" style="edgeStyle=orthogonalEdgeStyle;rounded=0;orthogonalLoop=1;jettySize=auto;html=1;exitX=1;exitY=0;exitDx=0;exitDy=0;elbow=vertical;endArrow=baseDash;endFill=0;strokeWidth=3;shadow=1;fontSize=25;fontStyle=1" parent="1" source="3vPyPZb5oFQ2m6JWZ5wa-36" target="3vPyPZb5oFQ2m6JWZ5wa-42" edge="1">
          <mxGeometry relative="1" as="geometry" />
        </mxCell>
        <mxCell id="XgsJs7H9sYoSa-Ch-RPL-66" style="edgeStyle=orthogonalEdgeStyle;rounded=0;orthogonalLoop=1;jettySize=auto;html=1;exitX=0;exitY=0.5;exitDx=0;exitDy=0;entryX=1;entryY=0.5;entryDx=0;entryDy=0;elbow=vertical;shape=link;strokeWidth=4;fontSize=25;fontStyle=1" parent="1" source="3vPyPZb5oFQ2m6JWZ5wa-36" target="1EAo7p61quaP7OBLnCX9-14" edge="1">
          <mxGeometry relative="1" as="geometry" />
        </mxCell>
        <mxCell id="XgsJs7H9sYoSa-Ch-RPL-79" style="edgeStyle=orthogonalEdgeStyle;rounded=0;orthogonalLoop=1;jettySize=auto;html=1;exitX=0;exitY=0;exitDx=0;exitDy=0;entryX=0.5;entryY=1;entryDx=0;entryDy=0;elbow=vertical;strokeWidth=3;endArrow=baseDash;endFill=0;" parent="1" source="3vPyPZb5oFQ2m6JWZ5wa-36" target="3vPyPZb5oFQ2m6JWZ5wa-44" edge="1">
          <mxGeometry relative="1" as="geometry" />
        </mxCell>
        <mxCell id="3vPyPZb5oFQ2m6JWZ5wa-36" value="&lt;font style=&quot;font-size: 25px;&quot;&gt;Train&lt;/font&gt;" style="rounded=0;whiteSpace=wrap;html=1;shadow=1;fontStyle=1;fontSize=25;fillColor=#647687;fontColor=#ffffff;strokeColor=#314354;strokeWidth=3;" parent="1" vertex="1">
          <mxGeometry x="600" y="-640.1400000000001" width="120" height="60" as="geometry" />
        </mxCell>
        <mxCell id="3vPyPZb5oFQ2m6JWZ5wa-42" value="&lt;u style=&quot;font-size: 25px;&quot;&gt;&lt;font style=&quot;font-size: 25px;&quot;&gt;ID&lt;/font&gt;&lt;/u&gt;" style="ellipse;whiteSpace=wrap;html=1;shadow=1;fontStyle=1;fontSize=25;fillColor=#f8cecc;strokeColor=#b85450;strokeWidth=3;" parent="1" vertex="1">
          <mxGeometry x="700" y="-820" width="130" height="49.86" as="geometry" />
        </mxCell>
        <mxCell id="3vPyPZb5oFQ2m6JWZ5wa-44" value="&lt;font style=&quot;font-size: 25px;&quot;&gt;Capacity&lt;/font&gt;" style="ellipse;whiteSpace=wrap;html=1;shadow=1;fontStyle=1;fontSize=25;fillColor=#f8cecc;strokeColor=#b85450;strokeWidth=3;" parent="1" vertex="1">
          <mxGeometry x="500" y="-830" width="120" height="70" as="geometry" />
        </mxCell>
        <mxCell id="3vPyPZb5oFQ2m6JWZ5wa-47" style="edgeStyle=orthogonalEdgeStyle;rounded=0;orthogonalLoop=1;jettySize=auto;html=1;exitX=1;exitY=0.5;exitDx=0;exitDy=0;shadow=1;fontStyle=1;fontSize=25;endArrow=baseDash;endFill=0;strokeWidth=3;" parent="1" source="3vPyPZb5oFQ2m6JWZ5wa-46" target="3vPyPZb5oFQ2m6JWZ5wa-48" edge="1">
          <mxGeometry relative="1" as="geometry">
            <mxPoint x="380" y="-750.0000000000001" as="targetPoint" />
          </mxGeometry>
        </mxCell>
        <mxCell id="3vPyPZb5oFQ2m6JWZ5wa-49" style="edgeStyle=orthogonalEdgeStyle;rounded=0;orthogonalLoop=1;jettySize=auto;html=1;exitX=0.5;exitY=1;exitDx=0;exitDy=0;shadow=1;fontStyle=1;fontSize=25;endArrow=baseDash;endFill=0;strokeWidth=3;" parent="1" source="3vPyPZb5oFQ2m6JWZ5wa-46" target="3vPyPZb5oFQ2m6JWZ5wa-50" edge="1">
          <mxGeometry relative="1" as="geometry">
            <mxPoint x="270" y="-750.0000000000001" as="targetPoint" />
          </mxGeometry>
        </mxCell>
        <mxCell id="3vPyPZb5oFQ2m6JWZ5wa-51" style="edgeStyle=orthogonalEdgeStyle;rounded=0;orthogonalLoop=1;jettySize=auto;html=1;exitX=0;exitY=0.5;exitDx=0;exitDy=0;shadow=1;fontStyle=1;fontSize=25;endArrow=baseDash;endFill=0;strokeWidth=3;" parent="1" source="3vPyPZb5oFQ2m6JWZ5wa-46" target="3vPyPZb5oFQ2m6JWZ5wa-52" edge="1">
          <mxGeometry relative="1" as="geometry">
            <mxPoint x="180" y="-780.0000000000001" as="targetPoint" />
          </mxGeometry>
        </mxCell>
        <mxCell id="XgsJs7H9sYoSa-Ch-RPL-38" style="edgeStyle=orthogonalEdgeStyle;rounded=0;orthogonalLoop=1;jettySize=auto;html=1;exitX=0.5;exitY=0;exitDx=0;exitDy=0;entryX=0.5;entryY=0;entryDx=0;entryDy=0;elbow=vertical;endArrow=baseDash;endFill=0;strokeWidth=3;shadow=1;fontSize=25;fontStyle=1" parent="1" source="3vPyPZb5oFQ2m6JWZ5wa-46" target="3vPyPZb5oFQ2m6JWZ5wa-36" edge="1">
          <mxGeometry relative="1" as="geometry" />
        </mxCell>
        <mxCell id="3vPyPZb5oFQ2m6JWZ5wa-46" value="&lt;font style=&quot;font-size: 25px;&quot;&gt;Model&lt;/font&gt;" style="ellipse;whiteSpace=wrap;html=1;shadow=1;fontStyle=1;fontSize=25;fillColor=#f8cecc;strokeColor=#b85450;strokeWidth=3;" parent="1" vertex="1">
          <mxGeometry x="210" y="-900" width="132.5" height="60" as="geometry" />
        </mxCell>
        <mxCell id="3vPyPZb5oFQ2m6JWZ5wa-48" value="&lt;font style=&quot;font-size: 25px;&quot;&gt;Production_Year&lt;/font&gt;" style="ellipse;whiteSpace=wrap;html=1;shadow=1;fontStyle=1;fontSize=25;fillColor=#dae8fc;strokeColor=#6c8ebf;strokeWidth=3;" parent="1" vertex="1">
          <mxGeometry x="280" y="-790" width="220" height="90" as="geometry" />
        </mxCell>
        <mxCell id="3vPyPZb5oFQ2m6JWZ5wa-50" value="&lt;font style=&quot;font-size: 25px;&quot;&gt;Name&lt;/font&gt;" style="ellipse;whiteSpace=wrap;html=1;shadow=1;fontStyle=1;fontSize=25;fillColor=#dae8fc;strokeColor=#6c8ebf;strokeWidth=3;" parent="1" vertex="1">
          <mxGeometry x="140" y="-780" width="105" height="60" as="geometry" />
        </mxCell>
        <mxCell id="3vPyPZb5oFQ2m6JWZ5wa-52" value="&lt;div style=&quot;font-size: 25px;&quot;&gt;&lt;span style=&quot;background-color: initial; font-size: 25px;&quot;&gt;&lt;font style=&quot;font-size: 25px;&quot;&gt;Made_From&lt;/font&gt;&lt;/span&gt;&lt;/div&gt;" style="ellipse;whiteSpace=wrap;html=1;shadow=1;fontStyle=1;fontSize=25;fillColor=#dae8fc;strokeColor=#6c8ebf;align=center;strokeWidth=3;" parent="1" vertex="1">
          <mxGeometry x="-70" y="-790" width="165" height="59.86" as="geometry" />
        </mxCell>
        <mxCell id="3vPyPZb5oFQ2m6JWZ5wa-54" style="edgeStyle=orthogonalEdgeStyle;rounded=0;orthogonalLoop=1;jettySize=auto;html=1;exitX=1;exitY=0;exitDx=0;exitDy=0;shadow=1;fontStyle=1;fontSize=25;endArrow=baseDash;endFill=0;strokeWidth=3;" parent="1" source="3vPyPZb5oFQ2m6JWZ5wa-53" target="3vPyPZb5oFQ2m6JWZ5wa-55" edge="1">
          <mxGeometry relative="1" as="geometry">
            <mxPoint x="1665" y="-320" as="targetPoint" />
          </mxGeometry>
        </mxCell>
        <mxCell id="3vPyPZb5oFQ2m6JWZ5wa-60" style="edgeStyle=orthogonalEdgeStyle;rounded=0;orthogonalLoop=1;jettySize=auto;html=1;exitX=0;exitY=0;exitDx=0;exitDy=0;shadow=1;fontStyle=1;fontSize=25;endArrow=baseDash;endFill=0;strokeWidth=3;" parent="1" source="3vPyPZb5oFQ2m6JWZ5wa-53" target="3vPyPZb5oFQ2m6JWZ5wa-61" edge="1">
          <mxGeometry relative="1" as="geometry">
            <mxPoint x="1525" y="-320" as="targetPoint" />
          </mxGeometry>
        </mxCell>
        <mxCell id="XgsJs7H9sYoSa-Ch-RPL-80" style="edgeStyle=orthogonalEdgeStyle;rounded=0;orthogonalLoop=1;jettySize=auto;html=1;exitX=0;exitY=1;exitDx=0;exitDy=0;entryX=1;entryY=0.5;entryDx=0;entryDy=0;elbow=vertical;shape=link;strokeWidth=4;" parent="1" source="3vPyPZb5oFQ2m6JWZ5wa-53" target="1EAo7p61quaP7OBLnCX9-56" edge="1">
          <mxGeometry relative="1" as="geometry" />
        </mxCell>
        <mxCell id="3vPyPZb5oFQ2m6JWZ5wa-53" value="Booking" style="rounded=0;whiteSpace=wrap;html=1;shadow=1;fontStyle=1;fontSize=25;fillColor=#647687;fontColor=#ffffff;strokeColor=#314354;strokeWidth=3;" parent="1" vertex="1">
          <mxGeometry x="1715" y="-260" width="120" height="60" as="geometry" />
        </mxCell>
        <mxCell id="3vPyPZb5oFQ2m6JWZ5wa-55" value="Registration_Date" style="ellipse;whiteSpace=wrap;html=1;shadow=1;fontStyle=1;fontSize=25;fillColor=#f8cecc;strokeColor=#b85450;strokeWidth=3;" parent="1" vertex="1">
          <mxGeometry x="1810" y="-400" width="250" height="80" as="geometry" />
        </mxCell>
        <mxCell id="3vPyPZb5oFQ2m6JWZ5wa-61" value="&lt;u style=&quot;font-size: 25px;&quot;&gt;ID&lt;/u&gt;" style="ellipse;whiteSpace=wrap;html=1;shadow=1;fontStyle=1;fontSize=25;fillColor=#f8cecc;strokeColor=#b85450;strokeWidth=3;" parent="1" vertex="1">
          <mxGeometry x="1630" y="-390" width="110" height="50" as="geometry" />
        </mxCell>
        <mxCell id="3vPyPZb5oFQ2m6JWZ5wa-63" style="edgeStyle=orthogonalEdgeStyle;rounded=0;orthogonalLoop=1;jettySize=auto;html=1;exitX=1;exitY=0;exitDx=0;exitDy=0;shadow=1;fontStyle=1;fontSize=25;endArrow=baseDash;endFill=0;strokeWidth=3;" parent="1" source="3vPyPZb5oFQ2m6JWZ5wa-62" target="3vPyPZb5oFQ2m6JWZ5wa-64" edge="1">
          <mxGeometry relative="1" as="geometry">
            <mxPoint x="340" y="-450" as="targetPoint" />
          </mxGeometry>
        </mxCell>
        <mxCell id="3vPyPZb5oFQ2m6JWZ5wa-65" style="edgeStyle=orthogonalEdgeStyle;rounded=0;orthogonalLoop=1;jettySize=auto;html=1;exitX=1;exitY=1;exitDx=0;exitDy=0;shadow=1;fontStyle=1;fontSize=25;endArrow=baseDash;endFill=0;strokeWidth=3;" parent="1" source="3vPyPZb5oFQ2m6JWZ5wa-62" target="3vPyPZb5oFQ2m6JWZ5wa-66" edge="1">
          <mxGeometry relative="1" as="geometry">
            <mxPoint x="320" y="-370" as="targetPoint" />
          </mxGeometry>
        </mxCell>
        <mxCell id="3vPyPZb5oFQ2m6JWZ5wa-67" style="edgeStyle=orthogonalEdgeStyle;rounded=0;orthogonalLoop=1;jettySize=auto;html=1;exitX=0.5;exitY=1;exitDx=0;exitDy=0;shadow=1;fontStyle=1;fontSize=25;endArrow=baseDash;endFill=0;strokeWidth=3;" parent="1" source="3vPyPZb5oFQ2m6JWZ5wa-62" target="3vPyPZb5oFQ2m6JWZ5wa-68" edge="1">
          <mxGeometry relative="1" as="geometry">
            <mxPoint x="200" y="-330" as="targetPoint" />
          </mxGeometry>
        </mxCell>
        <mxCell id="3vPyPZb5oFQ2m6JWZ5wa-62" value="&lt;font style=&quot;font-size: 25px;&quot;&gt;Ticket&lt;/font&gt;" style="rounded=0;whiteSpace=wrap;html=1;shadow=1;fontStyle=1;fontSize=25;fillColor=#647687;fontColor=#ffffff;strokeColor=#314354;strokeWidth=3;" parent="1" vertex="1">
          <mxGeometry x="140" y="-450" width="120" height="60" as="geometry" />
        </mxCell>
        <mxCell id="3vPyPZb5oFQ2m6JWZ5wa-64" value="&lt;u style=&quot;font-size: 25px;&quot;&gt;ID&lt;/u&gt;" style="ellipse;whiteSpace=wrap;html=1;shadow=1;fontStyle=1;fontSize=25;fillColor=#f8cecc;strokeColor=#b85450;strokeWidth=3;" parent="1" vertex="1">
          <mxGeometry x="280" y="-500" width="90" height="60" as="geometry" />
        </mxCell>
        <mxCell id="3vPyPZb5oFQ2m6JWZ5wa-66" value="Price" style="ellipse;whiteSpace=wrap;html=1;shadow=1;fontStyle=1;fontSize=25;fillColor=#f8cecc;strokeColor=#b85450;strokeWidth=3;" parent="1" vertex="1">
          <mxGeometry x="315" y="-390" width="90" height="60" as="geometry" />
        </mxCell>
        <mxCell id="3vPyPZb5oFQ2m6JWZ5wa-68" value="Trip_Name" style="ellipse;whiteSpace=wrap;html=1;shadow=1;fontStyle=1;fontSize=25;fillColor=#f8cecc;strokeColor=#b85450;strokeWidth=3;" parent="1" vertex="1">
          <mxGeometry x="140" y="-340" width="140" height="90.14" as="geometry" />
        </mxCell>
        <mxCell id="XgsJs7H9sYoSa-Ch-RPL-48" style="edgeStyle=orthogonalEdgeStyle;rounded=0;orthogonalLoop=1;jettySize=auto;html=1;exitX=0;exitY=1;exitDx=0;exitDy=0;elbow=vertical;endArrow=baseDash;endFill=0;strokeWidth=3;shadow=1;fontSize=25;fontStyle=1" parent="1" source="3vPyPZb5oFQ2m6JWZ5wa-69" target="3vPyPZb5oFQ2m6JWZ5wa-75" edge="1">
          <mxGeometry relative="1" as="geometry" />
        </mxCell>
        <mxCell id="XgsJs7H9sYoSa-Ch-RPL-92" style="edgeStyle=orthogonalEdgeStyle;rounded=0;orthogonalLoop=1;jettySize=auto;html=1;exitX=0;exitY=0.5;exitDx=0;exitDy=0;entryX=1;entryY=0.5;entryDx=0;entryDy=0;elbow=vertical;strokeWidth=3;endArrow=baseDash;endFill=0;" parent="1" source="3vPyPZb5oFQ2m6JWZ5wa-69" target="3vPyPZb5oFQ2m6JWZ5wa-73" edge="1">
          <mxGeometry relative="1" as="geometry" />
        </mxCell>
        <mxCell id="XgsJs7H9sYoSa-Ch-RPL-93" style="edgeStyle=orthogonalEdgeStyle;rounded=0;orthogonalLoop=1;jettySize=auto;html=1;exitX=0;exitY=0;exitDx=0;exitDy=0;entryX=1;entryY=0.5;entryDx=0;entryDy=0;elbow=vertical;strokeWidth=3;endArrow=baseDash;endFill=0;" parent="1" source="3vPyPZb5oFQ2m6JWZ5wa-69" target="3vPyPZb5oFQ2m6JWZ5wa-81" edge="1">
          <mxGeometry relative="1" as="geometry" />
        </mxCell>
        <mxCell id="3vPyPZb5oFQ2m6JWZ5wa-69" value="Schedule" style="rounded=0;whiteSpace=wrap;html=1;shadow=1;fontStyle=1;fontSize=25;fillColor=#647687;fontColor=#ffffff;strokeColor=#314354;strokeWidth=3;" parent="1" vertex="1">
          <mxGeometry x="-500" y="-390" width="210" height="60" as="geometry" />
        </mxCell>
        <mxCell id="3vPyPZb5oFQ2m6JWZ5wa-73" value="&lt;u style=&quot;font-size: 25px;&quot;&gt;ID&lt;/u&gt;" style="ellipse;whiteSpace=wrap;html=1;shadow=1;fontStyle=1;fontSize=25;fillColor=#f8cecc;strokeColor=#b85450;strokeWidth=3;" parent="1" vertex="1">
          <mxGeometry x="-700" y="-420" width="100" height="70" as="geometry" />
        </mxCell>
        <mxCell id="3vPyPZb5oFQ2m6JWZ5wa-75" value="State" style="ellipse;whiteSpace=wrap;html=1;shadow=1;fontStyle=5;fontSize=25;fillColor=#f8cecc;strokeColor=#b85450;strokeWidth=3;" parent="1" vertex="1">
          <mxGeometry x="-720" y="-240" width="115" height="65" as="geometry" />
        </mxCell>
        <mxCell id="3vPyPZb5oFQ2m6JWZ5wa-81" value="&lt;u style=&quot;font-size: 25px;&quot;&gt;Arrive_Time&lt;/u&gt;" style="ellipse;whiteSpace=wrap;html=1;shadow=1;fontStyle=1;fontSize=25;fillColor=#f8cecc;strokeColor=#b85450;strokeWidth=3;" parent="1" vertex="1">
          <mxGeometry x="-740" y="-610" width="160" height="100" as="geometry" />
        </mxCell>
        <mxCell id="DPTpgvz85yJJXa_czrge-37" value="&lt;font color=&quot;#ffffff&quot; style=&quot;font-size: 25px;&quot;&gt;Passnger&lt;/font&gt;" style="rounded=0;whiteSpace=wrap;html=1;shadow=1;fontStyle=1;fontSize=25;fillColor=#647687;fontColor=#ffffff;strokeColor=#314354;strokeWidth=3;" parent="1" vertex="1">
          <mxGeometry x="1185" y="-100" width="120" height="60" as="geometry" />
        </mxCell>
        <mxCell id="DPTpgvz85yJJXa_czrge-38" style="edgeStyle=orthogonalEdgeStyle;rounded=0;orthogonalLoop=1;jettySize=auto;html=1;exitX=0.5;exitY=0;exitDx=0;exitDy=0;entryX=0.25;entryY=1;entryDx=0;entryDy=0;endArrow=baseDash;endFill=0;fontStyle=1;fontSize=25;strokeWidth=3;shadow=1;" parent="1" source="DPTpgvz85yJJXa_czrge-39" target="DPTpgvz85yJJXa_czrge-37" edge="1">
          <mxGeometry relative="1" as="geometry" />
        </mxCell>
        <mxCell id="DPTpgvz85yJJXa_czrge-39" value="Name" style="ellipse;whiteSpace=wrap;html=1;shadow=1;fontStyle=1;fontSize=25;fillColor=#f8cecc;strokeColor=#b85450;strokeWidth=3;" parent="1" vertex="1">
          <mxGeometry x="1160" y="69.86000000000001" width="120" height="80" as="geometry" />
        </mxCell>
        <mxCell id="DPTpgvz85yJJXa_czrge-40" style="edgeStyle=orthogonalEdgeStyle;rounded=0;orthogonalLoop=1;jettySize=auto;html=1;exitX=1;exitY=0.5;exitDx=0;exitDy=0;entryX=0;entryY=0.75;entryDx=0;entryDy=0;shadow=1;endArrow=baseDash;endFill=0;fontStyle=1;fontSize=25;strokeWidth=3;" parent="1" source="DPTpgvz85yJJXa_czrge-41" target="DPTpgvz85yJJXa_czrge-37" edge="1">
          <mxGeometry relative="1" as="geometry" />
        </mxCell>
        <mxCell id="DPTpgvz85yJJXa_czrge-41" value="Phone" style="ellipse;whiteSpace=wrap;html=1;shadow=1;fontStyle=1;fontSize=25;fillColor=#f8cecc;strokeColor=#b85450;strokeWidth=3;" parent="1" vertex="1">
          <mxGeometry x="885" y="-100" width="130" height="90" as="geometry" />
        </mxCell>
        <mxCell id="DPTpgvz85yJJXa_czrge-42" value="&lt;u style=&quot;font-size: 25px;&quot;&gt;&lt;span style=&quot;font-size: 25px;&quot;&gt;ID&lt;/span&gt;&lt;/u&gt;" style="ellipse;whiteSpace=wrap;html=1;shadow=1;fontStyle=1;fontSize=25;fillColor=#f8cecc;strokeColor=#b85450;strokeWidth=3;" parent="1" vertex="1">
          <mxGeometry x="885" y="-195" width="120" height="80" as="geometry" />
        </mxCell>
        <mxCell id="DPTpgvz85yJJXa_czrge-43" style="edgeStyle=orthogonalEdgeStyle;rounded=0;orthogonalLoop=1;jettySize=auto;html=1;exitX=1;exitY=1;exitDx=0;exitDy=0;entryX=0.004;entryY=0.374;entryDx=0;entryDy=0;entryPerimeter=0;shadow=1;endArrow=baseDash;endFill=0;fontStyle=1;fontSize=25;strokeWidth=3;" parent="1" source="DPTpgvz85yJJXa_czrge-42" target="DPTpgvz85yJJXa_czrge-37" edge="1">
          <mxGeometry relative="1" as="geometry" />
        </mxCell>
        <mxCell id="DPTpgvz85yJJXa_czrge-44" style="edgeStyle=orthogonalEdgeStyle;rounded=0;orthogonalLoop=1;jettySize=auto;html=1;exitX=0.5;exitY=0;exitDx=0;exitDy=0;entryX=1;entryY=1;entryDx=0;entryDy=0;endArrow=baseDash;endFill=0;fontStyle=1;fontSize=25;strokeWidth=3;shadow=1;" parent="1" source="DPTpgvz85yJJXa_czrge-45" target="DPTpgvz85yJJXa_czrge-39" edge="1">
          <mxGeometry relative="1" as="geometry" />
        </mxCell>
        <mxCell id="DPTpgvz85yJJXa_czrge-45" value="LName" style="ellipse;whiteSpace=wrap;html=1;fontStyle=1;fontSize=25;fillColor=#dae8fc;strokeColor=#6c8ebf;strokeWidth=3;shadow=1;" parent="1" vertex="1">
          <mxGeometry x="1270" y="190" width="120" height="80" as="geometry" />
        </mxCell>
        <mxCell id="DPTpgvz85yJJXa_czrge-46" value="Phone" style="ellipse;whiteSpace=wrap;html=1;shadow=1;fontStyle=1;fontSize=25;fillColor=#f8cecc;strokeColor=#b85450;strokeWidth=3;" parent="1" vertex="1">
          <mxGeometry x="895" y="-92.5" width="110" height="75" as="geometry" />
        </mxCell>
        <mxCell id="DPTpgvz85yJJXa_czrge-47" style="edgeStyle=orthogonalEdgeStyle;rounded=0;orthogonalLoop=1;jettySize=auto;html=1;exitX=1;exitY=0;exitDx=0;exitDy=0;entryX=0;entryY=1;entryDx=0;entryDy=0;endArrow=baseDash;endFill=0;fontStyle=1;fontSize=25;strokeWidth=3;shadow=1;" parent="1" source="DPTpgvz85yJJXa_czrge-48" target="DPTpgvz85yJJXa_czrge-37" edge="1">
          <mxGeometry relative="1" as="geometry" />
        </mxCell>
        <mxCell id="DPTpgvz85yJJXa_czrge-48" value="Phone" style="ellipse;whiteSpace=wrap;html=1;shadow=1;fontStyle=1;fontSize=25;fillColor=#f8cecc;strokeColor=#b85450;strokeWidth=3;" parent="1" vertex="1">
          <mxGeometry x="890" y="5" width="130" height="90" as="geometry" />
        </mxCell>
        <mxCell id="DPTpgvz85yJJXa_czrge-49" value="Gmail" style="ellipse;whiteSpace=wrap;html=1;shadow=1;fontStyle=1;fontSize=25;fillColor=#f8cecc;strokeColor=#b85450;strokeWidth=3;" parent="1" vertex="1">
          <mxGeometry x="902.5" y="15" width="105" height="70" as="geometry" />
        </mxCell>
        <mxCell id="DPTpgvz85yJJXa_czrge-50" style="edgeStyle=orthogonalEdgeStyle;rounded=0;orthogonalLoop=1;jettySize=auto;html=1;exitX=0.5;exitY=0;exitDx=0;exitDy=0;entryX=0;entryY=1;entryDx=0;entryDy=0;endArrow=baseDash;endFill=0;fontStyle=1;fontSize=25;strokeWidth=3;shadow=1;" parent="1" source="DPTpgvz85yJJXa_czrge-51" target="DPTpgvz85yJJXa_czrge-39" edge="1">
          <mxGeometry relative="1" as="geometry" />
        </mxCell>
        <mxCell id="DPTpgvz85yJJXa_czrge-51" value="FName" style="ellipse;whiteSpace=wrap;html=1;fontStyle=1;fontSize=25;fillColor=#dae8fc;strokeColor=#6c8ebf;strokeWidth=3;shadow=1;" parent="1" vertex="1">
          <mxGeometry x="1065" y="189.86" width="120" height="80" as="geometry" />
        </mxCell>
        <mxCell id="1EAo7p61quaP7OBLnCX9-66" style="edgeStyle=orthogonalEdgeStyle;rounded=0;orthogonalLoop=1;jettySize=auto;html=1;exitX=1;exitY=0;exitDx=0;exitDy=0;entryX=0;entryY=0.5;entryDx=0;entryDy=0;endArrow=baseDash;endFill=0;fontStyle=1;fontSize=25;strokeWidth=3;shadow=1;" parent="1" source="DPTpgvz85yJJXa_czrge-52" target="DPTpgvz85yJJXa_czrge-55" edge="1">
          <mxGeometry relative="1" as="geometry" />
        </mxCell>
        <mxCell id="1EAo7p61quaP7OBLnCX9-67" style="edgeStyle=orthogonalEdgeStyle;rounded=0;orthogonalLoop=1;jettySize=auto;html=1;exitX=1;exitY=1;exitDx=0;exitDy=0;entryX=0;entryY=0.5;entryDx=0;entryDy=0;endArrow=baseDash;endFill=0;fontStyle=1;fontSize=25;strokeWidth=3;shadow=1;" parent="1" source="DPTpgvz85yJJXa_czrge-52" target="DPTpgvz85yJJXa_czrge-54" edge="1">
          <mxGeometry relative="1" as="geometry" />
        </mxCell>
        <mxCell id="DPTpgvz85yJJXa_czrge-52" value="Review" style="rounded=0;whiteSpace=wrap;html=1;shadow=1;fontSize=25;fontStyle=1;fillColor=#647687;fontColor=#ffffff;strokeColor=#314354;strokeWidth=3;" parent="1" vertex="1">
          <mxGeometry x="1500" y="15" width="120" height="60" as="geometry" />
        </mxCell>
        <mxCell id="DPTpgvz85yJJXa_czrge-54" value="Rate" style="ellipse;whiteSpace=wrap;html=1;shadow=1;fontSize=25;fontStyle=1;fillColor=#f8cecc;strokeColor=#b85450;strokeWidth=3;" parent="1" vertex="1">
          <mxGeometry x="1650" y="104.86000000000001" width="120" height="80" as="geometry" />
        </mxCell>
        <mxCell id="DPTpgvz85yJJXa_czrge-55" value="&lt;u style=&quot;font-size: 25px;&quot;&gt;&lt;span style=&quot;font-size: 25px;&quot;&gt;ID&lt;/span&gt;&lt;/u&gt;" style="ellipse;whiteSpace=wrap;html=1;shadow=1;fontSize=25;fontStyle=1;fillColor=#f8cecc;strokeColor=#b85450;strokeWidth=3;" parent="1" vertex="1">
          <mxGeometry x="1660" y="-70" width="120" height="80" as="geometry" />
        </mxCell>
        <mxCell id="DPTpgvz85yJJXa_czrge-57" value="Payment" style="rounded=0;whiteSpace=wrap;html=1;shadow=1;fontSize=25;fontStyle=1;fillColor=#647687;fontColor=#ffffff;strokeColor=#314354;strokeWidth=3;" parent="1" vertex="1">
          <mxGeometry x="1090" y="-450" width="120" height="60" as="geometry" />
        </mxCell>
        <mxCell id="DPTpgvz85yJJXa_czrge-58" style="edgeStyle=orthogonalEdgeStyle;rounded=0;orthogonalLoop=1;jettySize=auto;html=1;exitX=1;exitY=0;exitDx=0;exitDy=0;entryX=0;entryY=1;entryDx=0;entryDy=0;shadow=1;endArrow=baseDash;endFill=0;fontSize=25;fontStyle=1;strokeWidth=3;" parent="1" source="DPTpgvz85yJJXa_czrge-59" target="DPTpgvz85yJJXa_czrge-57" edge="1">
          <mxGeometry relative="1" as="geometry" />
        </mxCell>
        <mxCell id="DPTpgvz85yJJXa_czrge-59" value="Registration_Date" style="ellipse;whiteSpace=wrap;html=1;shadow=1;fontSize=25;fontStyle=1;fillColor=#f8cecc;strokeColor=#b85450;strokeWidth=3;" parent="1" vertex="1">
          <mxGeometry x="810" y="-340" width="230" height="90" as="geometry" />
        </mxCell>
        <mxCell id="DPTpgvz85yJJXa_czrge-60" style="edgeStyle=orthogonalEdgeStyle;rounded=0;orthogonalLoop=1;jettySize=auto;html=1;exitX=1;exitY=0.5;exitDx=0;exitDy=0;entryX=0;entryY=0.75;entryDx=0;entryDy=0;shadow=1;endArrow=baseDash;endFill=0;fontSize=25;fontStyle=1;strokeWidth=3;" parent="1" source="DPTpgvz85yJJXa_czrge-61" target="DPTpgvz85yJJXa_czrge-57" edge="1">
          <mxGeometry relative="1" as="geometry" />
        </mxCell>
        <mxCell id="DPTpgvz85yJJXa_czrge-61" value="Amount" style="ellipse;whiteSpace=wrap;html=1;shadow=1;fontSize=25;fontStyle=1;fillColor=#f8cecc;strokeColor=#b85450;strokeWidth=3;" parent="1" vertex="1">
          <mxGeometry x="890" y="-445" width="120" height="80" as="geometry" />
        </mxCell>
        <mxCell id="DPTpgvz85yJJXa_czrge-62" value="&lt;u style=&quot;font-size: 25px;&quot;&gt;&lt;span style=&quot;font-size: 25px;&quot;&gt;ID&lt;/span&gt;&lt;/u&gt;" style="ellipse;whiteSpace=wrap;html=1;shadow=1;fontSize=25;fontStyle=1;fillColor=#f8cecc;strokeColor=#b85450;strokeWidth=3;" parent="1" vertex="1">
          <mxGeometry x="890" y="-560" width="120" height="80" as="geometry" />
        </mxCell>
        <mxCell id="DPTpgvz85yJJXa_czrge-63" style="edgeStyle=orthogonalEdgeStyle;rounded=0;orthogonalLoop=1;jettySize=auto;html=1;exitX=1;exitY=1;exitDx=0;exitDy=0;entryX=0.004;entryY=0.374;entryDx=0;entryDy=0;entryPerimeter=0;shadow=1;endArrow=baseDash;endFill=0;fontSize=25;fontStyle=1;strokeWidth=3;" parent="1" source="DPTpgvz85yJJXa_czrge-62" target="DPTpgvz85yJJXa_czrge-57" edge="1">
          <mxGeometry relative="1" as="geometry" />
        </mxCell>
        <mxCell id="DPTpgvz85yJJXa_czrge-64" style="edgeStyle=orthogonalEdgeStyle;rounded=0;orthogonalLoop=1;jettySize=auto;html=1;exitX=0.5;exitY=1;exitDx=0;exitDy=0;endArrow=baseDash;endFill=0;fontSize=25;fontStyle=1;strokeWidth=3;shadow=1;" parent="1" source="DPTpgvz85yJJXa_czrge-66" target="DPTpgvz85yJJXa_czrge-75" edge="1">
          <mxGeometry relative="1" as="geometry" />
        </mxCell>
        <mxCell id="1EAo7p61quaP7OBLnCX9-82" style="edgeStyle=orthogonalEdgeStyle;rounded=0;orthogonalLoop=1;jettySize=auto;html=1;exitX=0.5;exitY=0;exitDx=0;exitDy=0;entryX=0.5;entryY=1;entryDx=0;entryDy=0;endArrow=baseDash;endFill=0;fillColor=#f8cecc;strokeColor=#b85450;fontStyle=1;fontSize=25;strokeWidth=3;shadow=1;" parent="1" source="DPTpgvz85yJJXa_czrge-66" target="DPTpgvz85yJJXa_czrge-73" edge="1">
          <mxGeometry relative="1" as="geometry" />
        </mxCell>
        <mxCell id="XgsJs7H9sYoSa-Ch-RPL-61" style="edgeStyle=orthogonalEdgeStyle;rounded=0;orthogonalLoop=1;jettySize=auto;html=1;exitX=0;exitY=0;exitDx=0;exitDy=0;entryX=0.5;entryY=1;entryDx=0;entryDy=0;elbow=vertical;strokeWidth=3;endArrow=baseDash;endFill=0;shadow=1;fontSize=25;fontStyle=1" parent="1" source="DPTpgvz85yJJXa_czrge-66" target="DPTpgvz85yJJXa_czrge-71" edge="1">
          <mxGeometry relative="1" as="geometry" />
        </mxCell>
        <mxCell id="XgsJs7H9sYoSa-Ch-RPL-62" style="edgeStyle=orthogonalEdgeStyle;rounded=0;orthogonalLoop=1;jettySize=auto;html=1;exitX=0;exitY=0.25;exitDx=0;exitDy=0;entryX=1;entryY=0.5;entryDx=0;entryDy=0;elbow=vertical;strokeWidth=3;endArrow=baseDash;endFill=0;shadow=1;fontSize=25;fontStyle=1" parent="1" source="DPTpgvz85yJJXa_czrge-66" target="DPTpgvz85yJJXa_czrge-70" edge="1">
          <mxGeometry relative="1" as="geometry" />
        </mxCell>
        <mxCell id="XgsJs7H9sYoSa-Ch-RPL-64" style="edgeStyle=orthogonalEdgeStyle;rounded=0;orthogonalLoop=1;jettySize=auto;html=1;exitX=0;exitY=0.75;exitDx=0;exitDy=0;entryX=1;entryY=0.5;entryDx=0;entryDy=0;elbow=vertical;strokeWidth=3;endArrow=baseDash;endFill=0;shadow=1;fontSize=25;fontStyle=1" parent="1" source="DPTpgvz85yJJXa_czrge-66" target="1EAo7p61quaP7OBLnCX9-23" edge="1">
          <mxGeometry relative="1" as="geometry" />
        </mxCell>
        <mxCell id="DPTpgvz85yJJXa_czrge-66" value="Employee" style="rounded=0;whiteSpace=wrap;html=1;shadow=1;fontSize=25;fontStyle=1;fillColor=#647687;fontColor=#ffffff;strokeColor=#314354;strokeWidth=3;" parent="1" vertex="1">
          <mxGeometry x="-380" y="226.5" width="120" height="60" as="geometry" />
        </mxCell>
        <mxCell id="DPTpgvz85yJJXa_czrge-67" style="edgeStyle=orthogonalEdgeStyle;rounded=0;orthogonalLoop=1;jettySize=auto;html=1;exitX=1;exitY=0;exitDx=0;exitDy=0;entryX=0;entryY=1;entryDx=0;entryDy=0;shadow=1;endArrow=baseDash;endFill=0;fontSize=25;fontStyle=1;strokeWidth=3;" parent="1" source="DPTpgvz85yJJXa_czrge-68" target="DPTpgvz85yJJXa_czrge-66" edge="1">
          <mxGeometry relative="1" as="geometry" />
        </mxCell>
        <mxCell id="DPTpgvz85yJJXa_czrge-68" value="Position" style="ellipse;whiteSpace=wrap;html=1;shadow=1;fontSize=25;fontStyle=1;fillColor=#f8cecc;strokeColor=#b85450;strokeWidth=3;" parent="1" vertex="1">
          <mxGeometry x="-640" y="451.5" width="120" height="80" as="geometry" />
        </mxCell>
        <mxCell id="DPTpgvz85yJJXa_czrge-70" value="Salary" style="ellipse;whiteSpace=wrap;html=1;shadow=1;fontSize=25;fontStyle=1;fillColor=#f8cecc;strokeColor=#b85450;strokeWidth=3;" parent="1" vertex="1">
          <mxGeometry x="-640" y="221.5" width="120" height="80" as="geometry" />
        </mxCell>
        <mxCell id="DPTpgvz85yJJXa_czrge-71" value="&lt;u style=&quot;font-size: 25px;&quot;&gt;&lt;span style=&quot;font-size: 25px;&quot;&gt;ID&lt;/span&gt;&lt;/u&gt;" style="ellipse;whiteSpace=wrap;html=1;shadow=1;fontSize=25;fontStyle=1;fillColor=#f8cecc;strokeColor=#b85450;strokeWidth=3;" parent="1" vertex="1">
          <mxGeometry x="-640" y="101.5" width="120" height="80" as="geometry" />
        </mxCell>
        <mxCell id="DPTpgvz85yJJXa_czrge-73" value="Phone" style="ellipse;whiteSpace=wrap;html=1;shadow=1;fillColor=#f8cecc;strokeColor=#b85450;fontStyle=1;fontSize=25;strokeWidth=3;" parent="1" vertex="1">
          <mxGeometry x="-385" y="96.5" width="130" height="90" as="geometry" />
        </mxCell>
        <mxCell id="XgsJs7H9sYoSa-Ch-RPL-60" value="" style="edgeStyle=orthogonalEdgeStyle;rounded=0;orthogonalLoop=1;jettySize=auto;html=1;elbow=vertical;strokeWidth=3;endArrow=baseDash;endFill=0;shadow=1;fontSize=25;fontStyle=1" parent="1" source="DPTpgvz85yJJXa_czrge-74" target="DPTpgvz85yJJXa_czrge-66" edge="1">
          <mxGeometry relative="1" as="geometry" />
        </mxCell>
        <mxCell id="DPTpgvz85yJJXa_czrge-74" value="Phone" style="ellipse;whiteSpace=wrap;html=1;shadow=1;fontSize=25;fontStyle=1;fillColor=#f8cecc;strokeColor=#b85450;strokeWidth=3;" parent="1" vertex="1">
          <mxGeometry x="-375" y="106.5" width="110" height="70" as="geometry" />
        </mxCell>
        <mxCell id="DPTpgvz85yJJXa_czrge-75" value="Name" style="ellipse;whiteSpace=wrap;html=1;shadow=1;fontSize=25;fontStyle=1;fillColor=#f8cecc;strokeColor=#b85450;strokeWidth=3;" parent="1" vertex="1">
          <mxGeometry x="-265" y="460" width="120" height="80" as="geometry" />
        </mxCell>
        <mxCell id="DPTpgvz85yJJXa_czrge-76" style="edgeStyle=orthogonalEdgeStyle;rounded=0;orthogonalLoop=1;jettySize=auto;html=1;exitX=0.5;exitY=0;exitDx=0;exitDy=0;entryX=1;entryY=1;entryDx=0;entryDy=0;endArrow=baseDash;endFill=0;fontSize=25;fontStyle=1;strokeWidth=3;shadow=1;" parent="1" source="DPTpgvz85yJJXa_czrge-77" target="DPTpgvz85yJJXa_czrge-75" edge="1">
          <mxGeometry relative="1" as="geometry" />
        </mxCell>
        <mxCell id="DPTpgvz85yJJXa_czrge-77" value="LName" style="ellipse;whiteSpace=wrap;html=1;fontSize=25;fontStyle=1;fillColor=#dae8fc;strokeColor=#6c8ebf;strokeWidth=3;shadow=1;" parent="1" vertex="1">
          <mxGeometry x="-170" y="620" width="120" height="80" as="geometry" />
        </mxCell>
        <mxCell id="DPTpgvz85yJJXa_czrge-78" style="edgeStyle=orthogonalEdgeStyle;rounded=0;orthogonalLoop=1;jettySize=auto;html=1;exitX=0.5;exitY=0;exitDx=0;exitDy=0;entryX=0;entryY=1;entryDx=0;entryDy=0;endArrow=baseDash;endFill=0;fontSize=25;fontStyle=1;strokeWidth=3;shadow=1;" parent="1" source="DPTpgvz85yJJXa_czrge-79" target="DPTpgvz85yJJXa_czrge-75" edge="1">
          <mxGeometry relative="1" as="geometry" />
        </mxCell>
        <mxCell id="DPTpgvz85yJJXa_czrge-79" value="FName" style="ellipse;whiteSpace=wrap;html=1;fontSize=25;fontStyle=1;fillColor=#dae8fc;strokeColor=#6c8ebf;strokeWidth=3;shadow=1;" parent="1" vertex="1">
          <mxGeometry x="-330" y="620" width="120" height="80" as="geometry" />
        </mxCell>
        <mxCell id="XgsJs7H9sYoSa-Ch-RPL-95" style="edgeStyle=orthogonalEdgeStyle;rounded=0;orthogonalLoop=1;jettySize=auto;html=1;exitX=0.5;exitY=0;exitDx=0;exitDy=0;entryX=0.5;entryY=1;entryDx=0;entryDy=0;elbow=vertical;strokeWidth=3;endArrow=baseDash;endFill=0;" parent="1" source="1EAo7p61quaP7OBLnCX9-1" target="3vPyPZb5oFQ2m6JWZ5wa-29" edge="1">
          <mxGeometry relative="1" as="geometry" />
        </mxCell>
        <mxCell id="1EAo7p61quaP7OBLnCX9-1" value="&lt;font style=&quot;font-size: 25px;&quot;&gt;&lt;span style=&quot;font-size: 25px;&quot;&gt;Has&lt;/span&gt;&lt;/font&gt;" style="rhombus;whiteSpace=wrap;html=1;fillColor=#e1d5e7;strokeColor=#9673a6;fontStyle=1;fontSize=25;strokeWidth=3;shadow=1;" parent="1" vertex="1">
          <mxGeometry x="450" y="111.5" width="130" height="80" as="geometry" />
        </mxCell>
        <mxCell id="1EAo7p61quaP7OBLnCX9-4" value="&lt;font style=&quot;font-size: 25px;&quot;&gt;&lt;span style=&quot;font-size: 25px;&quot;&gt;M&lt;/span&gt;&lt;/font&gt;" style="text;html=1;strokeColor=none;fillColor=none;align=center;verticalAlign=middle;whiteSpace=wrap;rounded=0;fontStyle=1;fontSize=25;strokeWidth=3;shadow=1;" parent="1" vertex="1">
          <mxGeometry x="520" y="80.72" width="60" height="30" as="geometry" />
        </mxCell>
        <mxCell id="1EAo7p61quaP7OBLnCX9-5" value="&lt;font style=&quot;font-size: 25px;&quot;&gt;&lt;span style=&quot;font-size: 25px;&quot;&gt;1&lt;/span&gt;&lt;/font&gt;" style="text;html=1;strokeColor=none;fillColor=none;align=center;verticalAlign=middle;whiteSpace=wrap;rounded=0;fontStyle=1;fontSize=25;strokeWidth=3;shadow=1;" parent="1" vertex="1">
          <mxGeometry x="460" y="201.5" width="60" height="30" as="geometry" />
        </mxCell>
        <mxCell id="1EAo7p61quaP7OBLnCX9-8" style="edgeStyle=orthogonalEdgeStyle;rounded=0;orthogonalLoop=1;jettySize=auto;html=1;entryX=0;entryY=0.5;entryDx=0;entryDy=0;endArrow=baseDash;endFill=0;shape=link;fontStyle=1;fontSize=25;strokeWidth=3;shadow=1;" parent="1" source="1EAo7p61quaP7OBLnCX9-7" target="3vPyPZb5oFQ2m6JWZ5wa-1" edge="1">
          <mxGeometry relative="1" as="geometry" />
        </mxCell>
        <mxCell id="1EAo7p61quaP7OBLnCX9-10" style="edgeStyle=orthogonalEdgeStyle;rounded=0;orthogonalLoop=1;jettySize=auto;html=1;exitX=0;exitY=0.5;exitDx=0;exitDy=0;entryX=1;entryY=1;entryDx=0;entryDy=0;endArrow=baseDash;endFill=0;fontStyle=1;fontSize=25;strokeWidth=3;shadow=1;" parent="1" source="1EAo7p61quaP7OBLnCX9-7" target="DPTpgvz85yJJXa_czrge-66" edge="1">
          <mxGeometry relative="1" as="geometry" />
        </mxCell>
        <mxCell id="1EAo7p61quaP7OBLnCX9-7" value="&lt;span style=&quot;font-size: 25px;&quot;&gt;&lt;font style=&quot;font-size: 25px;&quot;&gt;Works_On&lt;/font&gt;&lt;/span&gt;" style="rhombus;whiteSpace=wrap;html=1;fillColor=#e1d5e7;strokeColor=#9673a6;fontStyle=1;fontSize=25;strokeWidth=3;shadow=1;" parent="1" vertex="1">
          <mxGeometry x="-170" y="260" width="150" height="120" as="geometry" />
        </mxCell>
        <mxCell id="1EAo7p61quaP7OBLnCX9-11" value="&lt;span style=&quot;font-size: 25px;&quot;&gt;M&lt;/span&gt;" style="text;html=1;strokeColor=none;fillColor=none;align=center;verticalAlign=middle;whiteSpace=wrap;rounded=0;fontStyle=1;fontSize=25;strokeWidth=3;shadow=1;" parent="1" vertex="1">
          <mxGeometry x="-220" y="280" width="60" height="30" as="geometry" />
        </mxCell>
        <mxCell id="1EAo7p61quaP7OBLnCX9-12" value="&lt;span style=&quot;font-size: 25px;&quot;&gt;1&lt;/span&gt;" style="text;html=1;strokeColor=none;fillColor=none;align=center;verticalAlign=middle;whiteSpace=wrap;rounded=0;fontStyle=1;fontSize=25;strokeWidth=3;shadow=1;" parent="1" vertex="1">
          <mxGeometry x="-50" y="350" width="60" height="30" as="geometry" />
        </mxCell>
        <mxCell id="1EAo7p61quaP7OBLnCX9-20" style="edgeStyle=orthogonalEdgeStyle;rounded=0;orthogonalLoop=1;jettySize=auto;html=1;exitX=0;exitY=0.5;exitDx=0;exitDy=0;entryX=0.75;entryY=0;entryDx=0;entryDy=0;endArrow=baseDash;endFill=0;shape=link;fontStyle=1;fontSize=25;strokeWidth=3;shadow=1;" parent="1" source="1EAo7p61quaP7OBLnCX9-14" target="3vPyPZb5oFQ2m6JWZ5wa-69" edge="1">
          <mxGeometry relative="1" as="geometry" />
        </mxCell>
        <mxCell id="1EAo7p61quaP7OBLnCX9-14" value="&lt;font style=&quot;font-size: 25px;&quot;&gt;Train_Schedule&lt;/font&gt;" style="rhombus;whiteSpace=wrap;html=1;fillColor=#e1d5e7;strokeColor=#9673a6;fontStyle=1;fontSize=25;strokeWidth=3;shadow=1;" parent="1" vertex="1">
          <mxGeometry x="-90" y="-670.14" width="270" height="120.14" as="geometry" />
        </mxCell>
        <mxCell id="1EAo7p61quaP7OBLnCX9-26" style="edgeStyle=orthogonalEdgeStyle;rounded=0;orthogonalLoop=1;jettySize=auto;html=1;exitX=1;exitY=0;exitDx=0;exitDy=0;entryX=0.25;entryY=1;entryDx=0;entryDy=0;endArrow=baseDash;endFill=0;fontStyle=1;fontSize=25;strokeWidth=3;shadow=1;" parent="1" source="1EAo7p61quaP7OBLnCX9-22" target="DPTpgvz85yJJXa_czrge-66" edge="1">
          <mxGeometry relative="1" as="geometry" />
        </mxCell>
        <mxCell id="1EAo7p61quaP7OBLnCX9-22" value="&lt;span style=&quot;font-size: 25px;&quot;&gt;&lt;font style=&quot;font-size: 25px;&quot;&gt;Age&lt;/font&gt;&lt;/span&gt;" style="ellipse;whiteSpace=wrap;html=1;dashed=1;dashPattern=8 8;fillColor=#f8cecc;strokeColor=#b85450;fontStyle=1;fontSize=25;strokeWidth=3;shadow=1;" parent="1" vertex="1">
          <mxGeometry x="-640" y="580" width="120" height="80" as="geometry" />
        </mxCell>
        <mxCell id="1EAo7p61quaP7OBLnCX9-23" value="&lt;span style=&quot;font-size: 25px;&quot;&gt;&lt;font style=&quot;font-size: 25px;&quot;&gt;DOB&lt;/font&gt;&lt;/span&gt;" style="ellipse;whiteSpace=wrap;html=1;fillColor=#f8cecc;strokeColor=#b85450;fontStyle=1;fontSize=25;strokeWidth=3;shadow=1;" parent="1" vertex="1">
          <mxGeometry x="-640" y="341.5" width="120" height="80" as="geometry" />
        </mxCell>
        <mxCell id="1EAo7p61quaP7OBLnCX9-28" value="&lt;font style=&quot;font-size: 25px;&quot;&gt;M&lt;/font&gt;" style="text;html=1;align=center;verticalAlign=middle;resizable=0;points=[];autosize=1;strokeColor=none;fillColor=none;fontStyle=1;fontSize=25;strokeWidth=3;shadow=1;" parent="1" vertex="1">
          <mxGeometry x="160" y="-650" width="40" height="40" as="geometry" />
        </mxCell>
        <mxCell id="1EAo7p61quaP7OBLnCX9-29" value="&lt;font style=&quot;font-size: 25px;&quot;&gt;1&lt;/font&gt;" style="text;html=1;align=center;verticalAlign=middle;resizable=0;points=[];autosize=1;strokeColor=none;fillColor=none;fontStyle=1;fontSize=25;strokeWidth=3;shadow=1;" parent="1" vertex="1">
          <mxGeometry x="-135" y="-650" width="40" height="40" as="geometry" />
        </mxCell>
        <mxCell id="1EAo7p61quaP7OBLnCX9-45" value="&lt;font style=&quot;font-size: 25px;&quot;&gt;&lt;span style=&quot;font-size: 25px;&quot;&gt;Place&lt;/span&gt;&lt;/font&gt;" style="rhombus;whiteSpace=wrap;html=1;verticalAlign=middle;horizontal=1;fillColor=#e1d5e7;strokeColor=#9673a6;fontStyle=1;fontSize=25;strokeWidth=3;shadow=1;" parent="1" vertex="1">
          <mxGeometry x="390" y="444" width="110" height="80" as="geometry" />
        </mxCell>
        <mxCell id="1EAo7p61quaP7OBLnCX9-49" value="&lt;font style=&quot;font-size: 25px;&quot;&gt;&lt;span style=&quot;font-size: 25px;&quot;&gt;M&lt;/span&gt;&lt;/font&gt;" style="text;html=1;align=center;verticalAlign=middle;resizable=0;points=[];autosize=1;strokeColor=none;fillColor=none;fontStyle=1;fontSize=25;strokeWidth=3;shadow=1;" parent="1" vertex="1">
          <mxGeometry x="490" y="441.5" width="40" height="40" as="geometry" />
        </mxCell>
        <mxCell id="1EAo7p61quaP7OBLnCX9-50" value="&lt;font style=&quot;font-size: 25px;&quot;&gt;&lt;span style=&quot;font-size: 25px;&quot;&gt;N&lt;/span&gt;&lt;/font&gt;" style="text;html=1;align=center;verticalAlign=middle;resizable=0;points=[];autosize=1;strokeColor=none;fillColor=none;fontStyle=1;fontSize=25;strokeWidth=3;shadow=1;" parent="1" vertex="1">
          <mxGeometry x="370" y="404" width="40" height="40" as="geometry" />
        </mxCell>
        <mxCell id="1EAo7p61quaP7OBLnCX9-53" style="edgeStyle=orthogonalEdgeStyle;rounded=0;orthogonalLoop=1;jettySize=auto;html=1;exitX=0;exitY=0.5;exitDx=0;exitDy=0;entryX=1;entryY=0;entryDx=0;entryDy=0;endArrow=baseDash;endFill=0;fontStyle=1;fontSize=25;strokeWidth=3;shadow=1;" parent="1" source="1EAo7p61quaP7OBLnCX9-51" target="3vPyPZb5oFQ2m6JWZ5wa-69" edge="1">
          <mxGeometry relative="1" as="geometry" />
        </mxCell>
        <mxCell id="1EAo7p61quaP7OBLnCX9-54" style="edgeStyle=orthogonalEdgeStyle;rounded=0;orthogonalLoop=1;jettySize=auto;html=1;exitX=1;exitY=0.5;exitDx=0;exitDy=0;entryX=0;entryY=0;entryDx=0;entryDy=0;endArrow=baseDash;endFill=0;shape=link;fontStyle=1;fontSize=25;strokeWidth=3;shadow=1;" parent="1" source="1EAo7p61quaP7OBLnCX9-51" target="3vPyPZb5oFQ2m6JWZ5wa-62" edge="1">
          <mxGeometry relative="1" as="geometry" />
        </mxCell>
        <mxCell id="1EAo7p61quaP7OBLnCX9-51" value="&lt;font style=&quot;font-size: 25px;&quot;&gt;Has_Ticket&lt;/font&gt;" style="rhombus;whiteSpace=wrap;html=1;fillColor=#e1d5e7;strokeColor=#9673a6;fontStyle=1;fontSize=25;strokeWidth=3;shadow=1;" parent="1" vertex="1">
          <mxGeometry x="-280" y="-540" width="190" height="129.86" as="geometry" />
        </mxCell>
        <mxCell id="1EAo7p61quaP7OBLnCX9-58" style="edgeStyle=orthogonalEdgeStyle;rounded=0;orthogonalLoop=1;jettySize=auto;html=1;exitX=0;exitY=1;exitDx=0;exitDy=0;entryX=0.75;entryY=0;entryDx=0;entryDy=0;endArrow=baseDash;endFill=0;shape=link;fontStyle=1;fontSize=25;strokeWidth=3;shadow=1;" parent="1" source="1EAo7p61quaP7OBLnCX9-56" target="DPTpgvz85yJJXa_czrge-37" edge="1">
          <mxGeometry relative="1" as="geometry" />
        </mxCell>
        <mxCell id="1EAo7p61quaP7OBLnCX9-56" value="&lt;span style=&quot;font-size: 25px;&quot;&gt;&lt;font style=&quot;font-size: 25px;&quot;&gt;Passnger_Booking&lt;/font&gt;&lt;/span&gt;" style="rhombus;whiteSpace=wrap;html=1;fillColor=#e1d5e7;strokeColor=#9673a6;fontStyle=1;fontSize=25;strokeWidth=3;shadow=1;" parent="1" vertex="1">
          <mxGeometry x="1310" y="-240" width="280" height="140" as="geometry" />
        </mxCell>
        <mxCell id="1EAo7p61quaP7OBLnCX9-59" value="&lt;span style=&quot;font-size: 25px;&quot;&gt;&lt;font style=&quot;font-size: 25px;&quot;&gt;M&lt;/font&gt;&lt;/span&gt;" style="text;html=1;align=center;verticalAlign=middle;resizable=0;points=[];autosize=1;strokeColor=none;fillColor=none;fontStyle=1;fontSize=25;strokeWidth=3;shadow=1;" parent="1" vertex="1">
          <mxGeometry x="1590" y="-220" width="40" height="40" as="geometry" />
        </mxCell>
        <mxCell id="1EAo7p61quaP7OBLnCX9-60" value="&lt;span style=&quot;font-size: 25px;&quot;&gt;&lt;font style=&quot;font-size: 25px;&quot;&gt;1&lt;/font&gt;&lt;/span&gt;" style="text;html=1;align=center;verticalAlign=middle;resizable=0;points=[];autosize=1;strokeColor=none;fillColor=none;fontStyle=1;fontSize=25;strokeWidth=3;shadow=1;" parent="1" vertex="1">
          <mxGeometry x="1260" y="-180" width="40" height="40" as="geometry" />
        </mxCell>
        <mxCell id="1EAo7p61quaP7OBLnCX9-62" style="edgeStyle=orthogonalEdgeStyle;rounded=0;orthogonalLoop=1;jettySize=auto;html=1;exitX=0;exitY=0.5;exitDx=0;exitDy=0;entryX=1;entryY=0.5;entryDx=0;entryDy=0;endArrow=baseDash;endFill=0;shape=link;fontStyle=1;fontSize=25;strokeWidth=3;shadow=1;" parent="1" source="1EAo7p61quaP7OBLnCX9-61" target="DPTpgvz85yJJXa_czrge-57" edge="1">
          <mxGeometry relative="1" as="geometry" />
        </mxCell>
        <mxCell id="1EAo7p61quaP7OBLnCX9-63" style="edgeStyle=orthogonalEdgeStyle;rounded=0;orthogonalLoop=1;jettySize=auto;html=1;exitX=1;exitY=0.5;exitDx=0;exitDy=0;entryX=0;entryY=0.25;entryDx=0;entryDy=0;endArrow=baseDash;endFill=0;shape=link;fontStyle=1;fontSize=25;strokeWidth=3;shadow=1;" parent="1" source="1EAo7p61quaP7OBLnCX9-61" target="3vPyPZb5oFQ2m6JWZ5wa-53" edge="1">
          <mxGeometry relative="1" as="geometry" />
        </mxCell>
        <mxCell id="1EAo7p61quaP7OBLnCX9-61" value="&lt;span style=&quot;font-size: 25px;&quot;&gt;&lt;font style=&quot;font-size: 25px;&quot;&gt;Transaction&lt;/font&gt;&lt;/span&gt;" style="rhombus;whiteSpace=wrap;html=1;fillColor=#e1d5e7;strokeColor=#9673a6;fontStyle=1;fontSize=25;strokeWidth=3;shadow=1;" parent="1" vertex="1">
          <mxGeometry x="1250" y="-420" width="190" height="120" as="geometry" />
        </mxCell>
        <mxCell id="1EAo7p61quaP7OBLnCX9-64" value="&lt;span style=&quot;font-size: 25px;&quot;&gt;&lt;font style=&quot;font-size: 25px;&quot;&gt;M&lt;/font&gt;&lt;/span&gt;" style="text;html=1;align=center;verticalAlign=middle;resizable=0;points=[];autosize=1;strokeColor=none;fillColor=none;fontStyle=1;fontSize=25;strokeWidth=3;shadow=1;" parent="1" vertex="1">
          <mxGeometry x="1250" y="-420" width="40" height="40" as="geometry" />
        </mxCell>
        <mxCell id="1EAo7p61quaP7OBLnCX9-65" value="&lt;span style=&quot;font-size: 25px;&quot;&gt;&lt;font style=&quot;font-size: 25px;&quot;&gt;N&lt;/font&gt;&lt;/span&gt;" style="text;html=1;align=center;verticalAlign=middle;resizable=0;points=[];autosize=1;strokeColor=none;fillColor=none;fontStyle=1;fontSize=25;strokeWidth=3;shadow=1;" parent="1" vertex="1">
          <mxGeometry x="1430" y="-420" width="40" height="40" as="geometry" />
        </mxCell>
        <mxCell id="1EAo7p61quaP7OBLnCX9-70" style="edgeStyle=orthogonalEdgeStyle;rounded=0;orthogonalLoop=1;jettySize=auto;html=1;exitX=1;exitY=0.5;exitDx=0;exitDy=0;entryX=0;entryY=0.5;entryDx=0;entryDy=0;endArrow=baseDash;endFill=0;fontStyle=1;fontSize=25;strokeWidth=3;shadow=1;" parent="1" source="1EAo7p61quaP7OBLnCX9-69" target="DPTpgvz85yJJXa_czrge-52" edge="1">
          <mxGeometry relative="1" as="geometry" />
        </mxCell>
        <mxCell id="1EAo7p61quaP7OBLnCX9-71" style="edgeStyle=orthogonalEdgeStyle;rounded=0;orthogonalLoop=1;jettySize=auto;html=1;exitX=0;exitY=0.5;exitDx=0;exitDy=0;entryX=1;entryY=1;entryDx=0;entryDy=0;endArrow=baseDash;endFill=0;fontStyle=1;fontSize=25;strokeWidth=3;shadow=1;" parent="1" source="1EAo7p61quaP7OBLnCX9-69" target="DPTpgvz85yJJXa_czrge-37" edge="1">
          <mxGeometry relative="1" as="geometry" />
        </mxCell>
        <mxCell id="1EAo7p61quaP7OBLnCX9-69" value="&lt;span style=&quot;font-size: 25px;&quot;&gt;&lt;font style=&quot;font-size: 25px;&quot;&gt;Says&lt;/font&gt;&lt;/span&gt;" style="rhombus;whiteSpace=wrap;html=1;fillColor=#e1d5e7;strokeColor=#9673a6;fontStyle=1;fontSize=25;strokeWidth=3;shadow=1;" parent="1" vertex="1">
          <mxGeometry x="1340" y="5" width="105" height="80" as="geometry" />
        </mxCell>
        <mxCell id="1EAo7p61quaP7OBLnCX9-72" value="&lt;span style=&quot;font-size: 25px;&quot;&gt;&lt;font style=&quot;font-size: 25px;&quot;&gt;1&lt;/font&gt;&lt;/span&gt;" style="text;html=1;align=center;verticalAlign=middle;resizable=0;points=[];autosize=1;strokeColor=none;fillColor=none;fontStyle=1;fontSize=25;strokeWidth=3;shadow=1;" parent="1" vertex="1">
          <mxGeometry x="1445" y="10" width="40" height="40" as="geometry" />
        </mxCell>
        <mxCell id="1EAo7p61quaP7OBLnCX9-73" value="&lt;span style=&quot;font-size: 25px;&quot;&gt;&lt;span style=&quot;font-size: 25px;&quot;&gt;M&lt;/span&gt;&lt;/span&gt;" style="text;html=1;align=center;verticalAlign=middle;resizable=0;points=[];autosize=1;strokeColor=none;fillColor=none;fontStyle=1;fontSize=25;strokeWidth=3;shadow=1;" parent="1" vertex="1">
          <mxGeometry x="1320" width="40" height="40" as="geometry" />
        </mxCell>
        <mxCell id="1EAo7p61quaP7OBLnCX9-74" value="&lt;font style=&quot;font-size: 25px;&quot;&gt;M&lt;/font&gt;" style="text;html=1;align=center;verticalAlign=middle;resizable=0;points=[];autosize=1;strokeColor=none;fillColor=none;fontStyle=1;fontSize=25;strokeWidth=3;shadow=1;" parent="1" vertex="1">
          <mxGeometry x="-100" y="-520" width="40" height="40" as="geometry" />
        </mxCell>
        <mxCell id="1EAo7p61quaP7OBLnCX9-75" value="&lt;font style=&quot;font-size: 25px;&quot;&gt;1&lt;/font&gt;" style="text;html=1;align=center;verticalAlign=middle;resizable=0;points=[];autosize=1;strokeColor=none;fillColor=none;fontStyle=1;fontSize=25;strokeWidth=3;shadow=1;" parent="1" vertex="1">
          <mxGeometry x="-305" y="-510" width="40" height="40" as="geometry" />
        </mxCell>
        <mxCell id="1EAo7p61quaP7OBLnCX9-80" style="edgeStyle=orthogonalEdgeStyle;rounded=0;orthogonalLoop=1;jettySize=auto;html=1;exitX=0.5;exitY=1;exitDx=0;exitDy=0;entryX=0.001;entryY=0.169;entryDx=0;entryDy=0;entryPerimeter=0;endArrow=baseDash;endFill=0;fontStyle=1;fontSize=25;strokeWidth=3;shadow=1;" parent="1" source="3vPyPZb5oFQ2m6JWZ5wa-17" target="3vPyPZb5oFQ2m6JWZ5wa-1" edge="1">
          <mxGeometry relative="1" as="geometry" />
        </mxCell>
        <mxCell id="1EAo7p61quaP7OBLnCX9-81" style="edgeStyle=orthogonalEdgeStyle;rounded=0;orthogonalLoop=1;jettySize=auto;html=1;exitX=0.5;exitY=1;exitDx=0;exitDy=0;entryX=1.001;entryY=0.107;entryDx=0;entryDy=0;entryPerimeter=0;endArrow=baseDash;endFill=0;fontStyle=1;fontSize=25;strokeWidth=3;shadow=1;" parent="1" source="3vPyPZb5oFQ2m6JWZ5wa-15" target="3vPyPZb5oFQ2m6JWZ5wa-1" edge="1">
          <mxGeometry relative="1" as="geometry" />
        </mxCell>
        <mxCell id="XgsJs7H9sYoSa-Ch-RPL-36" style="edgeStyle=orthogonalEdgeStyle;rounded=0;orthogonalLoop=1;jettySize=auto;html=1;exitX=1;exitY=0.5;exitDx=0;exitDy=0;entryX=0.641;entryY=1.034;entryDx=0;entryDy=0;entryPerimeter=0;elbow=vertical;shape=link;strokeWidth=3;shadow=1;fontSize=25;fontStyle=1" parent="1" source="1EAo7p61quaP7OBLnCX9-45" target="3vPyPZb5oFQ2m6JWZ5wa-36" edge="1">
          <mxGeometry relative="1" as="geometry" />
        </mxCell>
        <mxCell id="XgsJs7H9sYoSa-Ch-RPL-46" style="edgeStyle=orthogonalEdgeStyle;rounded=0;orthogonalLoop=1;jettySize=auto;html=1;exitX=1;exitY=0.5;exitDx=0;exitDy=0;entryX=0.25;entryY=0;entryDx=0;entryDy=0;elbow=vertical;endArrow=baseDash;endFill=0;shape=link;strokeWidth=3;shadow=1;fontSize=25;fontStyle=1" parent="1" source="XgsJs7H9sYoSa-Ch-RPL-43" target="3vPyPZb5oFQ2m6JWZ5wa-1" edge="1">
          <mxGeometry relative="1" as="geometry" />
        </mxCell>
        <mxCell id="XgsJs7H9sYoSa-Ch-RPL-56" style="edgeStyle=orthogonalEdgeStyle;rounded=0;orthogonalLoop=1;jettySize=auto;html=1;exitX=0;exitY=0.5;exitDx=0;exitDy=0;entryX=0.5;entryY=1;entryDx=0;entryDy=0;elbow=vertical;endArrow=baseDash;endFill=0;shape=link;strokeWidth=3;shadow=1;fontSize=25;fontStyle=1" parent="1" source="XgsJs7H9sYoSa-Ch-RPL-43" target="3vPyPZb5oFQ2m6JWZ5wa-69" edge="1">
          <mxGeometry relative="1" as="geometry" />
        </mxCell>
        <mxCell id="XgsJs7H9sYoSa-Ch-RPL-43" value="&lt;span style=&quot;font-size: 25px;&quot;&gt;Schedule_Station&lt;/span&gt;" style="shape=rhombus;perimeter=rhombusPerimeter;whiteSpace=wrap;html=1;align=center;fillColor=#e1d5e7;strokeColor=#9673a6;strokeWidth=3;shadow=1;fontSize=25;fontStyle=1" parent="1" vertex="1">
          <mxGeometry x="-220" y="-9.280000000000001" width="240" height="120" as="geometry" />
        </mxCell>
        <mxCell id="XgsJs7H9sYoSa-Ch-RPL-86" style="edgeStyle=orthogonalEdgeStyle;rounded=0;orthogonalLoop=1;jettySize=auto;html=1;exitX=1;exitY=0.5;exitDx=0;exitDy=0;entryX=0;entryY=0.25;entryDx=0;entryDy=0;elbow=vertical;strokeWidth=4;endArrow=baseDash;endFill=0;" parent="1" source="XgsJs7H9sYoSa-Ch-RPL-50" target="3vPyPZb5oFQ2m6JWZ5wa-29" edge="1">
          <mxGeometry relative="1" as="geometry" />
        </mxCell>
        <mxCell id="XgsJs7H9sYoSa-Ch-RPL-50" value="&lt;span style=&quot;font-size: 25px;&quot;&gt;Schedule_Platform&lt;/span&gt;" style="shape=rhombus;perimeter=rhombusPerimeter;whiteSpace=wrap;html=1;align=center;fillColor=#e1d5e7;strokeColor=#9673a6;strokeWidth=3;shadow=1;fontSize=25;fontStyle=1" parent="1" vertex="1">
          <mxGeometry x="50" y="-150" width="280" height="120" as="geometry" />
        </mxCell>
        <mxCell id="XgsJs7H9sYoSa-Ch-RPL-57" style="edgeStyle=orthogonalEdgeStyle;rounded=0;orthogonalLoop=1;jettySize=auto;html=1;exitX=0;exitY=0.5;exitDx=0;exitDy=0;entryX=0.857;entryY=1;entryDx=0;entryDy=0;entryPerimeter=0;elbow=vertical;endArrow=baseDash;endFill=0;shape=link;strokeWidth=3;shadow=1;fontSize=25;fontStyle=1" parent="1" source="XgsJs7H9sYoSa-Ch-RPL-50" target="3vPyPZb5oFQ2m6JWZ5wa-69" edge="1">
          <mxGeometry relative="1" as="geometry" />
        </mxCell>
        <mxCell id="XgsJs7H9sYoSa-Ch-RPL-69" value="&lt;font style=&quot;font-size: 25px;&quot;&gt;&lt;b&gt;M&lt;/b&gt;&lt;/font&gt;" style="text;html=1;align=center;verticalAlign=middle;resizable=0;points=[];autosize=1;strokeColor=none;fillColor=none;" parent="1" vertex="1">
          <mxGeometry x="300" y="-140" width="40" height="40" as="geometry" />
        </mxCell>
        <mxCell id="XgsJs7H9sYoSa-Ch-RPL-70" value="&lt;font style=&quot;font-size: 25px;&quot;&gt;1&lt;/font&gt;" style="text;html=1;align=center;verticalAlign=middle;resizable=0;points=[];autosize=1;strokeColor=none;fillColor=none;fontStyle=1" parent="1" vertex="1">
          <mxGeometry x="40" y="-150" width="40" height="40" as="geometry" />
        </mxCell>
        <mxCell id="XgsJs7H9sYoSa-Ch-RPL-71" value="&lt;font style=&quot;font-size: 25px;&quot;&gt;1&lt;/font&gt;" style="text;html=1;align=center;verticalAlign=middle;resizable=0;points=[];autosize=1;strokeColor=none;fillColor=none;fontStyle=1" parent="1" vertex="1">
          <mxGeometry x="-250" y="0.7199999999999989" width="40" height="40" as="geometry" />
        </mxCell>
        <mxCell id="XgsJs7H9sYoSa-Ch-RPL-72" value="&lt;font style=&quot;font-size: 25px;&quot;&gt;M&lt;/font&gt;" style="text;html=1;align=center;verticalAlign=middle;resizable=0;points=[];autosize=1;strokeColor=none;fillColor=none;fontStyle=1" parent="1" vertex="1">
          <mxGeometry x="20" y="84.5" width="40" height="40" as="geometry" />
        </mxCell>
      </root>
    </mxGraphModel>
  </diagram>
</mxfile>
